<svg width="3410" height="1024" viewBox="0 0 3410 1024" fill="none" xmlns="http://www.w3.org/2000/svg">
<rect width="3409.9" height="1024" fill="#373737"/>
<path d="M579.399 726.5L674.599 688.5L722.199 717L679.399 784.5C676.399 789.8 670.799 793.1 664.799 793.1H627.899C621.599 793.1 615.799 789.5 612.899 783.9L579.399 726.5Z" fill="url(#paint0_linear_391_162)"/>
<path d="M428 649.1L484.2 574.3L541.3 641L455.6 707.6L428 649.1Z" fill="url(#paint1_linear_391_162)"/>
<path d="M877.2 463.5L760.2 326.9L591 326.8L758.3 511L867.4 631.1L932.6 547.2C937.5 540.9 937.3 531.9 932 525.9L877.2 463.5Z" fill="url(#paint2_linear_391_162)"/>
<path d="M923.3 675.4L872.3 770.1C868.1 777.8 858.7 781 850.7 777.4L398.5 563.1L484.2 441.1L915.9 652.4C924.4 656.5 927.8 667 923.3 675.4Z" fill="url(#paint3_linear_391_162)"/>
<path d="M877.199 463.5L758.299 511L435.399 643.2C425.999 647.1 422.099 658.4 427.299 667.2L477.299 752.9C481.299 759.8 489.599 762.9 497.199 760.3L874.499 631.5L933.599 547.1C937.999 540.8 937.599 532.2 932.499 526.4L877.199 463.5Z" fill="url(#paint4_linear_391_162)"/>
<path d="M391 554.3L373.8 508.5C371.5 502.2 373 495.2 377.9 490.6L635.2 242.4C652.6 225.6 680.6 227.4 695.7 246.3L760.2 326.9L416.2 562.3C407.2 568.4 394.8 564.5 391 554.3Z" fill="url(#paint5_linear_391_162)"/>
<path d="M837.199 355.6C837.199 333.2 818.999 315 796.599 315H512.299C489.899 315 471.699 333.2 471.699 355.6V497.8V640C471.699 662.4 489.899 680.6 512.299 680.6H796.699C819.099 680.6 837.299 662.4 837.299 640V497.8V355.6H837.199Z" fill="#2B2B2B"/>
<path d="M750.2 569.5C743.1 558.1 734.4 541.7 715.5 526.6C705.4 518.5 705.1 503.4 714.9 494.9C715 494.8 715.1 494.8 715.1 494.7C758.1 457.2 754.1 390.3 688.8 372C622.5 353.4 566.8 388.8 554.2 443.4C544.7 484.8 546 510.6 548 536.4C554.8 624.1 565.5 632.9 599.4 627.4C633.3 621.9 614.4 591.8 608.6 573.4C600.8 548.6 600.7 535.3 616.9 534.3C637.9 532.9 677.7 547.4 690.5 590.3C704 635.6 725.8 630.2 746.2 626.1C766.6 621.8 766.9 596.1 750.2 569.5ZM619.8 487.9C609.1 485.7 603.9 475.3 605.1 447.8C606.1 426.1 623.6 411.4 647.7 413.1C672.4 414.9 691.6 422.8 691.7 443.6C691.8 462.2 666.2 479.8 644.7 485.1C634.6 487.7 626.3 489.2 619.8 487.9Z" fill="white"/>
<path d="M716.556 369.716L708.425 361.584L616.855 453.154L624.987 461.285L716.556 369.716Z" fill="#2B2B2B"/>
<path d="M730.807 384.042L722.676 375.91L640.511 458.075L648.642 466.207L730.807 384.042Z" fill="#2B2B2B"/>
<path d="M745.087 398.335L736.955 390.204L670.205 456.954L678.336 465.085L745.087 398.335Z" fill="#2B2B2B"/>
<path d="M759.422 412.588L751.29 404.457L606.193 549.553L614.325 557.685L759.422 412.588Z" fill="#2B2B2B"/>
<path d="M773.716 426.891L765.584 418.759L620.487 563.856L628.619 571.987L773.716 426.891Z" fill="#2B2B2B"/>
<path d="M788.01 441.193L779.878 433.061L634.781 578.158L642.913 586.29L788.01 441.193Z" fill="#2B2B2B"/>
<path d="M802.288 455.474L794.156 447.343L634.069 607.43L642.2 615.562L802.288 455.474Z" fill="#2B2B2B"/>
<path d="M816.582 469.777L808.45 461.645L648.363 621.733L656.494 629.864L816.582 469.777Z" fill="#2B2B2B"/>
<path d="M830.875 484.079L822.743 475.948L662.656 636.035L670.787 644.167L830.875 484.079Z" fill="#2B2B2B"/>
<path d="M807.933 535.637L799.802 527.505L687.797 639.51L695.929 647.641L807.933 535.637Z" fill="#2B2B2B"/>
<path d="M822.226 549.939L814.095 541.808L702.09 653.812L710.222 661.944L822.226 549.939Z" fill="#2B2B2B"/>
<path d="M1175.7 563.1C1172 563.7 1166.5 564.2 1159.1 564.7C1151.7 565.2 1143.3 565.5 1133.9 565.6C1124.5 565.7 1114.6 565.8 1104.2 565.9C1093.8 566 1084 566 1074.7 566L1073.8 596C1073.4 604.1 1073 612.1 1072.5 619.7C1072 627.4 1071.6 635 1071.2 642.5C1071 647.7 1068.5 650.4 1063.6 650.4H1032.8C1028.1 650.4 1025.6 647.7 1025.2 642.3C1024.4 625.2 1023.9 609.8 1023.7 595.9C1023.5 582 1023.5 568 1023.6 553.9C1023.7 539.7 1024 524.6 1024.6 508.5C1025.2 492.4 1025.9 473.6 1026.6 452C1027.8 447 1030.2 444.4 1033.9 444.4H1035.1C1036.7 444.2 1038.7 444.1 1041.4 444C1044 443.9 1046.8 443.6 1049.7 443C1058.4 442.4 1068.9 441.9 1081.1 441.5C1093.3 441.1 1105.5 440.9 1117.6 440.9C1129.7 440.9 1141 441.1 1151.4 441.5C1161.8 441.9 1169.6 442.5 1174.8 443.2C1176.9 443.6 1178.1 444.8 1178.3 447V465C1178.3 466.4 1178.1 467.2 1177.7 467.5C1177.3 467.8 1176.6 468.1 1175.7 468.5C1172 469.3 1166.5 469.9 1159.1 470.2C1151.7 470.6 1143.3 470.9 1133.9 471.1C1124.5 471.3 1114.6 471.4 1104.2 471.5C1093.8 471.6 1084 471.6 1074.7 471.6H1073.5L1074.4 498.7C1074.6 504.9 1074.7 511.1 1074.7 517.2C1074.7 523.3 1074.7 529.5 1074.7 535.7C1079.2 535.5 1083.8 535.4 1088.5 535.4C1093.3 535.4 1098.1 535.3 1102.9 535.1C1110.1 535.1 1117.3 535.1 1124.6 535.1C1131.9 535.1 1138.7 535.2 1145.1 535.4C1151.5 535.6 1157.3 535.9 1162.4 536.3C1167.5 536.7 1171.7 537.1 1174.8 537.5C1176.9 537.7 1178.1 538.9 1178.3 541V559.3C1178.3 560.5 1178.1 561.3 1177.7 561.8C1177.4 562.3 1176.7 562.8 1175.7 563.1Z" fill="url(#paint6_linear_391_162)"/>
<path d="M1351.2 646.9C1349.8 647.7 1348.3 647.8 1346.5 647.3C1344.8 646.8 1343.3 645.7 1342.1 644C1337.4 635.9 1333.3 628 1329.6 620.6C1325.9 613.1 1322.3 605.8 1318.8 598.6C1316.7 598.8 1314.5 598.9 1312.3 598.9C1310.1 598.9 1307.8 598.9 1305.5 598.9C1298.5 599.1 1291.1 599.3 1283.4 599.5C1275.6 599.7 1268.2 599.8 1261 599.8H1245.6C1242.3 607.2 1238.7 614.5 1234.7 621.9C1230.7 629.3 1226.6 636.7 1222.3 644.3C1220 648 1217 649 1213.3 647.2L1189.7 635.9C1188 634.7 1186.6 633.5 1185.6 632.3C1184.6 631 1184.5 629.5 1185.3 627.8C1190.5 615 1196.9 600.4 1204.4 584.1C1211.9 567.8 1219.7 551.4 1228 534.9C1236.2 518.4 1244.5 502.7 1252.7 487.8C1260.9 472.9 1268.7 460.4 1275.8 450.3C1277.7 447.4 1280 445.7 1282.6 445.4C1285.2 445 1287.5 445.7 1289.4 447.4V447.7C1291 448.5 1292 449.5 1292.6 450.9C1300.6 460.8 1308.5 473.2 1316.5 488C1324.5 502.8 1332.2 518.5 1339.8 534.8C1347.4 551.2 1354.5 567.5 1361.3 583.8C1368.1 600.1 1374 614.6 1379.1 627.4C1379.7 629.1 1379.5 630.7 1378.7 632.1C1377.8 633.5 1376.6 634.5 1375.1 635.3L1351.2 646.9ZM1258.7 572.5H1260.2C1267 572.5 1274.2 572.3 1281.9 571.8C1289.6 571.3 1296.8 571.1 1303.6 571.1H1307.1L1300.7 556C1297.8 549 1295.1 542.2 1292.7 535.6C1290.3 529 1287.9 522.4 1285.6 515.8L1284.4 513.2C1281.7 519.8 1278.9 526.5 1276 533.4C1273.1 540.3 1270.2 547.1 1267.3 553.9L1258.7 572.5Z" fill="url(#paint7_linear_391_162)"/>
<path d="M1407.4 592.5C1410.7 591.1 1412.9 591.8 1414.1 594.5C1417.2 600.7 1421.2 605.8 1426.2 609.8C1431.1 613.8 1436.3 616.8 1441.8 618.8C1447.2 620.8 1452.8 621.9 1458.4 621.9C1464 621.9 1469.2 620.9 1473.8 618.8C1478.5 616.8 1482.2 613.8 1485.1 609.9C1488 606 1489.8 601.1 1490.3 595.1C1490.5 591.2 1490 587.8 1488.8 584.9C1487.6 582 1485.1 579 1481.1 575.9C1477.1 572.8 1471.4 569.5 1464.1 566C1456.7 562.5 1446.8 558.3 1434.4 553.5C1422.8 548.8 1414 542.9 1408.2 535.7C1402.4 528.5 1399.5 518.5 1399.5 505.7C1399.5 494.5 1402 484.9 1406.9 477C1411.8 469.1 1418.1 462.8 1425.8 458.1C1433.5 453.3 1442.1 450.1 1451.7 448.4C1461.3 446.7 1470.8 446.3 1480.2 447.2C1489.6 448.2 1498.4 450.5 1506.5 454.3C1514.7 458.1 1521.1 463.1 1526 469.3L1528.3 472.8C1528.9 473.4 1529 474.4 1528.6 475.7L1515.5 489.4C1514.7 490.6 1513.6 491.5 1512.2 492.2C1510.7 492.9 1509.5 492.7 1508.6 491.8C1505.5 487.5 1500.4 483.9 1493.3 481C1486.2 478.1 1479.1 476.7 1471.9 476.8C1464.7 476.9 1458.4 478.9 1452.8 482.8C1447.3 486.7 1444.5 493.2 1444.5 502.3C1444.5 507.2 1446.4 511.4 1450.2 515.1C1454 518.8 1459.9 522.4 1468.1 525.9C1474.5 529 1482.1 532 1490.9 534.8C1499.7 537.6 1508.2 541.5 1516.2 546.6C1524.2 551.6 1530.8 558.2 1535.8 566.4C1540.8 574.5 1543 585.2 1542.2 598.4C1541.4 609.8 1537.7 619.7 1531 627.9C1524.3 636.1 1516 642.6 1506.1 647.3C1496.2 652 1485.3 654.7 1473.5 655.4C1461.7 656.2 1450.1 654.9 1438.9 651.5C1427.6 648.1 1417.4 642.5 1408.2 634.8C1399 627 1392 616.9 1387.4 604.2C1386.2 601.1 1387 599.2 1389.7 598.4L1407.4 592.5Z" fill="url(#paint8_linear_391_162)"/>
<path d="M1716.4 476.1C1712.1 476.7 1705.6 477.1 1696.9 477.4C1688.2 477.7 1678.4 478 1667.5 478.4C1665.8 478.4 1664.2 478.4 1662.7 478.4C1661.2 478.4 1659.6 478.6 1657.9 479C1658.7 491.4 1659.2 504 1659.4 516.7C1659.6 529.4 1659.6 542.5 1659.4 555.8C1659.2 571.1 1658.9 586 1658.4 600.3C1657.9 614.7 1657.1 628.9 1655.9 643.1C1655.7 648 1653.3 650.4 1648.6 650.4H1617.5C1615.4 650.4 1613.6 649.7 1612.3 648.4C1610.9 647 1610.2 645.3 1610 643.2C1609.6 631.4 1609.3 620.4 1609 610.3C1608.7 600.2 1608.6 590.4 1608.6 580.8C1608.6 571.2 1608.7 561.5 1608.9 551.7C1609.1 541.9 1609.4 531.3 1609.8 519.8C1610 514 1610.1 507.6 1610.2 500.7C1610.3 493.8 1610.5 486.7 1610.9 479.3H1598.4C1587.5 479.3 1577.7 479.1 1568.9 478.6C1560.1 478.1 1553.4 477.7 1549 477.3C1547.6 477.3 1547 476.1 1547 473.8L1546.7 455.5C1546.7 454.3 1547 453.5 1547.7 453C1548.4 452.5 1549.1 452.2 1549.9 452C1554.2 451.4 1560.5 450.8 1569 450.3C1577.4 449.7 1587 449.3 1597.7 449C1608.4 448.7 1619.6 448.5 1631.3 448.4C1643 448.3 1654.3 448.3 1665.2 448.4C1676.1 448.5 1686 448.7 1695 449C1704 449.3 1711 449.8 1716.1 450.6C1718.6 451 1719.9 452.3 1719.9 454.4V472.2C1719.9 473.6 1719.7 474.4 1719.2 474.8C1718.4 475.1 1717.6 475.6 1716.4 476.1Z" fill="url(#paint9_linear_391_162)"/>
<path d="M1934 454C1943.9 458.9 1951.7 465.6 1957.4 474.4C1963.1 483.1 1966.7 492.5 1968 502.6C1969.4 512.7 1968.4 522.7 1965.1 532.6C1961.8 542.5 1955.9 550.8 1947.3 557.6C1943.8 560.3 1940 562.6 1936 564.6L1950.5 587C1955.3 594.8 1959.8 602.6 1963.9 610.4C1968 618.3 1971.8 626 1975.2 633.5C1976.8 636.2 1975.5 638.7 1971.4 641.1L1946.1 656.5C1941.8 658.8 1939 658.9 1937.7 656.8C1933.4 651 1929.6 645.6 1926.1 640.6C1922.6 635.7 1919.4 630.7 1916.5 625.8C1913.6 620.9 1910.6 615.9 1907.6 610.8C1904.6 605.8 1901.3 600.3 1897.9 594.5C1896.2 591.4 1894.4 588.1 1892.7 584.8C1891 581.4 1889 577.8 1886.9 573.9C1885.2 574.1 1883.4 574.2 1881.7 574.2C1880 574.2 1878.2 574.2 1876.5 574.2C1873 574.4 1869.6 574.5 1866.2 574.5C1862.8 574.5 1859.4 574.5 1855.9 574.5L1855.3 600.1C1855.1 608.2 1854.7 616.2 1854.1 623.8C1853.5 631.5 1853 639.1 1852.6 646.6C1852.4 651.8 1849.9 654.5 1845 654.5H1814.2C1812.1 654.5 1810.3 653.7 1809 652.2C1807.6 650.6 1806.9 648.7 1806.7 646.4C1805.9 629.3 1805.4 613.9 1805.2 600C1805 586.1 1805 572.2 1805.1 558.1C1805.2 544 1805.5 529 1806.1 512.9C1806.7 496.8 1807.4 477.9 1808.1 456.2C1808.5 453.7 1809.3 451.9 1810.4 451L1811.6 449.8L1813.1 448.9C1813.7 448.9 1814.2 448.8 1814.6 448.6H1814.9L1825.1 447.7C1832.5 446.9 1841.3 446.3 1851.6 446C1861.9 445.6 1872.3 445.6 1882.9 446C1893.5 446.4 1903.4 447.2 1912.7 448.5C1921.8 449.6 1929 451.5 1934 454ZM1855.7 502.9C1856.1 510.9 1856.3 518.7 1856.3 526.3C1856.3 534 1856.2 541.8 1856 549.7H1865.9C1872.3 549.7 1878.8 549.3 1885.4 548.4C1892 547.5 1897.8 546.1 1902.9 544.2C1906.4 542.6 1909.3 540.1 1911.5 536.5C1913.7 532.9 1915.3 528.7 1916.3 523.8C1917.3 519 1917.6 513.9 1917.3 508.5C1917 503.2 1916.1 498.2 1914.5 493.5C1912.9 488.8 1910.6 484.8 1907.5 481.4C1904.4 478 1900.7 475.7 1896.4 474.6C1890.6 473.2 1883.2 472.6 1874.3 472.6C1870.8 472.6 1867.5 472.7 1864.3 472.7C1861.1 472.8 1857.9 472.9 1854.8 473.1L1855.7 502.9Z" fill="#087CFA"/>
<path d="M2134.2 559.1C2130.5 559.7 2125 560.2 2117.6 560.6C2110.2 561 2101.9 561.3 2092.6 561.5C2083.3 561.7 2073.5 561.9 2063.2 562.1C2052.9 562.3 2043 562.4 2033.5 562.4H2033.2L2032.3 596.2L2030.8 621.8H2033.7C2043.4 621.8 2053.5 621.8 2064 621.7C2074.5 621.6 2084.6 621.6 2094.4 621.7C2104.2 621.8 2113.1 621.9 2121 622.1C2129 622.3 2135.2 622.8 2139.6 623.6C2141.7 623.8 2142.8 625.1 2142.8 627.4L2143.1 645.7C2143.1 647.3 2142 648.4 2139.9 649.2C2135 650 2127.3 650.7 2116.6 651.2C2105.9 651.8 2094.1 652.2 2081.2 652.5C2068.3 652.8 2055.3 652.9 2042.1 652.8C2028.9 652.7 2017.5 652.3 2007.8 651.5L1992.7 650.6H1991.2C1986.5 650.6 1984 647.9 1983.6 642.5C1982.8 625.4 1982.3 610 1982.1 596.1C1981.9 582.2 1981.9 568.2 1982 554.1C1982.1 539.9 1982.4 524.8 1983 508.7C1983.6 492.6 1984.3 473.8 1985 452.2C1986.2 447.2 1988.7 444.6 1992.6 444.6H1993.5C1995.1 444.4 1997.1 444.3 1999.8 444.2C2002.4 444.1 2005.2 443.8 2008.1 443.2C2016.8 442.6 2027.3 442.1 2039.5 441.7C2051.7 441.3 2063.9 441.1 2076 441.1C2088.1 441.1 2099.4 441.3 2109.8 441.7C2120.2 442.1 2128 442.7 2133.2 443.4C2135.5 444 2136.7 445.2 2136.7 447.2V465.2C2136.7 466.6 2136.5 467.4 2136.1 467.7C2135.7 468 2135 468.3 2134.1 468.7C2130.4 469.5 2124.9 470.1 2117.5 470.4C2110.1 470.8 2101.8 471.1 2092.5 471.3C2083.2 471.5 2073.4 471.6 2063.1 471.7C2052.8 471.8 2042.9 471.8 2033.4 471.8H2031.9L2032.8 498.9C2033 504.3 2033.1 509.8 2033.1 515.2C2033.1 520.6 2033.1 526.2 2033.1 531.8C2037.6 531.6 2042.2 531.5 2046.9 531.5C2051.7 531.5 2056.5 531.4 2061.3 531.2C2068.5 531.2 2075.7 531.2 2083 531.2C2090.3 531.2 2097.1 531.3 2103.5 531.5C2109.9 531.7 2115.7 531.9 2120.8 532.2C2125.9 532.5 2130.1 532.9 2133.2 533.5C2135.5 533.9 2136.7 535.1 2136.7 537.3V555C2136.7 556.4 2136.5 557.2 2136.1 557.6C2135.9 558 2135.2 558.5 2134.2 559.1Z" fill="#087CFA"/>
<path d="M2305.9 679C2304.2 677.6 2301.7 675.2 2298.5 671.7C2295.3 668.2 2291.9 664.1 2288.2 659.5C2287.8 658.7 2287.3 658 2286.6 657.3C2285.9 656.6 2285.4 656 2285 655.4L2282.4 656C2277.7 657 2272.9 657.8 2268 658.6C2263.1 659.4 2258.1 659.8 2253 659.8H2252.4C2242.1 659.8 2232.1 658.7 2222.3 656.6C2212.5 654.5 2203.4 651.1 2195.1 646.4C2186.8 641.7 2179.6 636 2173.6 629.2C2167.6 622.4 2162.7 614.9 2159 606.8C2155.3 598.7 2152.5 589.9 2150.7 580.5C2148.9 571.1 2147.9 561.3 2147.9 551.3C2147.9 541.2 2148.9 531.4 2151 521.8C2153 512.2 2156.1 503.3 2160.2 495C2164.3 486.8 2169.2 479.3 2175 472.6C2180.8 465.9 2187.5 460.6 2195.1 456.7C2203.2 452.4 2212.3 449.2 2222.2 447.1C2232.1 445 2242.2 443.9 2252.5 443.9H2253.4C2263.7 443.9 2273.7 444.9 2283.5 446.8C2293.3 448.7 2302.4 452 2310.7 456.7C2318.1 460.6 2324.7 465.9 2330.6 472.6C2336.5 479.3 2341.5 486.8 2345.4 495C2349.4 503.2 2352.4 512.2 2354.6 521.8C2356.7 531.4 2357.8 541.3 2357.8 551.3C2357.8 571.9 2353.8 590.1 2345.9 606C2340.3 617.4 2332.7 627.1 2323.2 635.1C2324.6 637.4 2325.9 639.6 2327.3 641.6C2328.7 643.6 2329.8 645.7 2330.8 647.9C2333.1 652.4 2334.7 655.9 2335.5 658.7C2336.1 659.9 2335 661.4 2332.3 663.4L2311.3 678.5C2308.6 679.3 2306.9 679.5 2305.9 679ZM2301.8 590.5C2306.1 578.9 2308.2 565.8 2308.2 551.2C2308.2 544 2307.4 536.9 2305.9 530C2304.3 523 2302.2 516.6 2299.4 510.7C2296.6 504.8 2293.4 499.5 2289.8 494.8C2286.2 490.1 2282.4 486.6 2278.3 484C2270 479 2261.4 476.4 2252.7 476.4C2244 476.4 2235.4 478.9 2227.1 484C2222.8 486.5 2219 490.1 2215.8 494.8C2212.5 499.5 2209.6 504.7 2207.2 510.7C2204.8 516.6 2202.9 523.1 2201.7 530C2200.4 537 2199.8 544.1 2199.8 551.2C2199.8 565.9 2202.4 579.1 2207.5 590.8C2212.6 602.4 2219.4 610.8 2227.7 615.8C2231.8 618.1 2235.9 620 2240.1 621.5C2244.3 623 2248.5 623.7 2252.8 623.7C2255.5 623.7 2258.7 623.3 2262.4 622.5L2257.5 614.6C2256.3 612.5 2255.4 610.5 2254.6 608.8C2253.8 607.1 2253.2 605.7 2252.9 604.7C2252.7 604.1 2253.9 602.9 2256.4 600.9L2277.3 586.1C2280 584.2 2281.8 583.7 2282.5 584.6C2285 586.2 2287.7 588.6 2290.6 591.9C2291.6 592.9 2292.6 594.1 2293.8 595.5C2295 597 2296.2 598.4 2297.6 599.7C2299.4 596.7 2300.9 593.6 2301.8 590.5Z" fill="url(#paint10_linear_391_162)"/>
<path d="M2529.1 460.4C2528.1 455.9 2525.6 453.7 2521.5 453.7H2491.2C2489.1 453.7 2487.2 454.1 2485.5 454.9C2483.8 455.7 2483 457 2483 459C2482.4 471 2482.1 482.8 2482.1 494.2C2482.1 505.6 2482.1 516.9 2482 528.1C2481.9 539.3 2481.7 550.4 2481.4 561.6C2481.1 572.8 2480.3 584 2478.9 595.2C2478.1 602.2 2475.1 608.1 2469.7 613.1C2464.4 618 2456.9 620.5 2447.4 620.5H2446.5H2446.2C2436.7 620.5 2429.3 618 2423.9 613.1C2418.6 608.2 2415.4 602.2 2414.4 595.2C2413.2 584 2412.4 572.7 2411.9 561.6C2411.4 550.4 2411.1 539.3 2411 528.1C2410.9 516.9 2410.9 505.6 2410.9 494.2C2410.9 482.8 2410.7 471 2410.3 459C2410.3 457.1 2409.5 455.7 2408 454.9C2406.4 454.1 2404.6 453.7 2402.5 453.7H2372.2C2368.1 453.7 2365.6 455.9 2364.6 460.4C2363.6 478.6 2363 495.3 2362.7 510.3C2362.4 525.3 2362.4 539 2362.6 551.2C2362.8 563.4 2363.4 574.3 2364.3 583.9C2365.3 593.5 2366.6 602 2368.4 609.4C2370 616.4 2373.2 622.6 2378 628.2C2382.8 633.7 2388.9 638.4 2396 642.2C2403.2 646 2411.1 648.9 2419.9 650.9C2428.6 652.9 2437.5 654 2446.4 654C2455.7 654 2464.7 653 2473.5 650.9C2482.2 648.9 2490.2 646 2497.4 642.2C2504.6 638.4 2510.6 633.8 2515.4 628.2C2520.2 622.7 2523.4 616.4 2525 609.4C2528.1 594.3 2529.9 574.9 2530.5 551.2C2531.4 527.5 2530.8 497.3 2529.1 460.4Z" fill="url(#paint11_linear_391_162)"/>
<path d="M2688 559.1C2684.3 559.7 2678.8 560.2 2671.4 560.6C2664 561 2655.7 561.3 2646.4 561.5C2637.1 561.7 2627.3 561.9 2617 562.1C2606.7 562.3 2596.8 562.4 2587.3 562.4H2587L2586.1 596.2L2584.6 621.8H2587.5C2597.2 621.8 2607.3 621.8 2617.8 621.7C2628.3 621.6 2638.4 621.6 2648.2 621.7C2658 621.8 2666.9 621.9 2674.8 622.1C2682.8 622.3 2689 622.8 2693.4 623.6C2695.5 623.8 2696.6 625.1 2696.6 627.4L2696.9 645.7C2696.9 647.3 2695.8 648.4 2693.7 649.2C2688.8 650 2681.1 650.7 2670.4 651.2C2659.7 651.8 2647.9 652.2 2635 652.5C2622.1 652.8 2609.1 652.9 2595.9 652.8C2582.7 652.7 2571.3 652.3 2561.6 651.5L2546.5 650.6H2545C2540.3 650.6 2537.8 647.9 2537.4 642.5C2536.6 625.4 2536.1 610 2535.9 596.1C2535.7 582.2 2535.7 568.2 2535.8 554.1C2535.9 539.9 2536.2 524.8 2536.8 508.7C2537.4 492.6 2538.1 473.8 2538.8 452.2C2540 447.2 2542.5 444.6 2546.4 444.6H2547.3C2548.9 444.4 2550.9 444.3 2553.6 444.2C2556.2 444.1 2559 443.8 2561.9 443.2C2570.6 442.6 2581.1 442.1 2593.3 441.7C2605.5 441.3 2617.7 441.1 2629.8 441.1C2641.9 441.1 2653.2 441.3 2663.6 441.7C2674 442.1 2681.8 442.7 2687 443.4C2689.3 444 2690.5 445.2 2690.5 447.2V465.2C2690.5 466.6 2690.3 467.4 2689.9 467.7C2689.5 468 2688.8 468.3 2687.9 468.7C2684.2 469.5 2678.7 470.1 2671.3 470.4C2663.9 470.8 2655.6 471.1 2646.3 471.3C2637 471.5 2627.2 471.6 2616.9 471.7C2606.6 471.8 2596.7 471.8 2587.2 471.8H2585.7L2586.6 498.9C2586.8 504.3 2586.9 509.8 2586.9 515.2C2586.9 520.6 2586.9 526.2 2586.9 531.8C2591.4 531.6 2596 531.5 2600.7 531.5C2605.5 531.5 2610.3 531.4 2615.1 531.2C2622.3 531.2 2629.5 531.2 2636.8 531.2C2644.1 531.2 2650.9 531.3 2657.3 531.5C2663.7 531.7 2669.5 531.9 2674.6 532.2C2679.7 532.5 2683.9 532.9 2687 533.5C2689.3 533.9 2690.5 535.1 2690.5 537.3V555C2690.5 556.4 2690.3 557.2 2689.9 557.6C2689.6 558 2688.9 558.5 2688 559.1Z" fill="url(#paint12_linear_391_162)"/>
<path d="M2724.9 592.5C2728.2 591.1 2730.4 591.8 2731.6 594.5C2734.7 600.7 2738.7 605.8 2743.7 609.8C2748.6 613.8 2753.8 616.8 2759.3 618.8C2764.7 620.8 2770.3 621.9 2775.9 621.9C2781.5 621.9 2786.7 620.9 2791.3 618.8C2796 616.8 2799.7 613.8 2802.6 609.9C2805.5 606 2807.3 601.1 2807.8 595.1C2808 591.2 2807.5 587.8 2806.3 584.9C2805.1 582 2802.6 579 2798.6 575.9C2794.6 572.8 2788.9 569.5 2781.6 566C2774.2 562.5 2764.3 558.3 2751.9 553.5C2740.3 548.8 2731.5 542.9 2725.7 535.7C2719.9 528.5 2717 518.5 2717 505.7C2717 494.5 2719.5 484.9 2724.4 477C2729.3 469.1 2735.6 462.8 2743.3 458.1C2751 453.3 2759.6 450.1 2769.2 448.4C2778.8 446.7 2788.3 446.3 2797.7 447.2C2807.1 448.2 2815.9 450.5 2824 454.3C2832.1 458.1 2838.6 463.1 2843.5 469.3L2845.8 472.8C2846.4 473.4 2846.5 474.4 2846.1 475.7L2833 489.4C2832.2 490.6 2831.1 491.5 2829.7 492.2C2828.2 492.9 2827 492.7 2826.1 491.8C2823 487.5 2817.9 483.9 2810.8 481C2803.7 478.1 2796.6 476.7 2789.4 476.8C2782.2 476.9 2775.9 478.9 2770.3 482.8C2764.8 486.7 2762 493.2 2762 502.3C2762 507.2 2763.9 511.4 2767.7 515.1C2771.5 518.8 2777.4 522.4 2785.6 525.9C2792 529 2799.6 532 2808.4 534.8C2817.2 537.6 2825.7 541.5 2833.7 546.6C2841.7 551.6 2848.3 558.2 2853.3 566.4C2858.3 574.5 2860.5 585.2 2859.7 598.4C2858.9 609.8 2855.2 619.7 2848.5 627.9C2841.8 636.1 2833.5 642.6 2823.6 647.3C2813.7 652 2802.8 654.7 2791 655.4C2779.2 656.2 2767.6 654.9 2756.4 651.5C2745.1 648.1 2734.9 642.5 2725.7 634.8C2716.5 627 2709.5 616.9 2704.9 604.2C2703.7 601.1 2704.5 599.2 2707.2 598.4L2724.9 592.5Z" fill="url(#paint13_linear_391_162)"/>
<path d="M3034 476.1C3029.7 476.7 3023.2 477.1 3014.5 477.4C3005.8 477.7 2996 478 2985.1 478.4C2983.4 478.4 2981.8 478.4 2980.3 478.4C2978.8 478.4 2977.2 478.6 2975.5 479C2976.3 491.4 2976.8 504 2977 516.7C2977.2 529.4 2977.2 542.5 2977 555.8C2976.8 571.1 2976.5 586 2976 600.3C2975.5 614.7 2974.7 628.9 2973.5 643.1C2973.3 648 2970.9 650.4 2966.2 650.4H2935C2932.9 650.4 2931.1 649.7 2929.8 648.4C2928.4 647 2927.7 645.3 2927.5 643.2C2927.1 631.4 2926.8 620.4 2926.5 610.3C2926.2 600.2 2926.1 590.4 2926.1 580.8C2926.1 571.2 2926.2 561.5 2926.4 551.7C2926.6 541.9 2926.9 531.3 2927.3 519.8C2927.5 514 2927.6 507.6 2927.7 500.7C2927.8 493.8 2928 486.7 2928.4 479.3H2915.9C2905 479.3 2895.2 479.1 2886.4 478.6C2877.6 478.1 2870.9 477.7 2866.5 477.3C2865.1 477.3 2864.5 476.1 2864.5 473.8L2864.2 455.5C2864.2 454.3 2864.5 453.5 2865.2 453C2865.9 452.5 2866.6 452.2 2867.4 452C2871.7 451.4 2878 450.8 2886.5 450.3C2894.9 449.7 2904.5 449.3 2915.2 449C2925.9 448.7 2937.1 448.5 2948.8 448.4C2960.5 448.3 2971.8 448.3 2982.7 448.4C2993.6 448.5 3003.5 448.7 3012.5 449C3021.5 449.3 3028.5 449.8 3033.6 450.6C3036.1 451 3037.4 452.3 3037.4 454.4V472.2C3037.4 473.6 3037.2 474.4 3036.7 474.8C3035.9 475.1 3035.1 475.6 3034 476.1Z" fill="url(#paint14_linear_391_162)"/>
<defs>
<linearGradient id="paint0_linear_391_162" x1="650.749" y1="782.637" x2="650.749" y2="710.73" gradientUnits="userSpaceOnUse">
<stop stop-color="#EE197D"/>
<stop offset="0.0692985" stop-color="#EF247B"/>
<stop offset="0.7125" stop-color="#F38A68"/>
<stop offset="1" stop-color="#F5B361"/>
</linearGradient>
<linearGradient id="paint1_linear_391_162" x1="431.705" y1="666.841" x2="534.163" y2="597.458" gradientUnits="userSpaceOnUse">
<stop offset="0.0753616" stop-color="#6B57FF"/>
<stop offset="0.1192" stop-color="#715AF5"/>
<stop offset="0.1947" stop-color="#8063D9"/>
<stop offset="0.2925" stop-color="#9971AC"/>
<stop offset="0.409" stop-color="#BC846E"/>
<stop offset="0.5399" stop-color="#E89D20"/>
<stop offset="0.5722" stop-color="#F3A30B"/>
<stop offset="0.7385" stop-color="#F9A600"/>
</linearGradient>
<linearGradient id="paint2_linear_391_162" x1="598.057" y1="267.083" x2="847.822" y2="512.401" gradientUnits="userSpaceOnUse">
<stop stop-color="#3DEA62"/>
<stop offset="0.8132" stop-color="#21D789"/>
<stop offset="0.8316" stop-color="#1FCF93"/>
<stop offset="0.863" stop-color="#19B9AF"/>
<stop offset="0.9035" stop-color="#0F95DB"/>
<stop offset="0.9284" stop-color="#087CFA"/>
</linearGradient>
<linearGradient id="paint3_linear_391_162" x1="398.51" y1="609.964" x2="925.291" y2="609.964" gradientUnits="userSpaceOnUse">
<stop offset="0.4145" stop-color="#FFF84A"/>
<stop offset="0.5205" stop-color="#FEEE41"/>
<stop offset="0.7025" stop-color="#FCD228"/>
<stop offset="0.9362" stop-color="#F9A600"/>
</linearGradient>
<linearGradient id="paint4_linear_391_162" x1="462.103" y1="716.473" x2="941.018" y2="519.879" gradientUnits="userSpaceOnUse">
<stop stop-color="#5E5CFE"/>
<stop offset="0.3171" stop-color="#087CFA"/>
<stop offset="0.7238" stop-color="#087CFA"/>
<stop offset="0.772" stop-color="#0886F9"/>
<stop offset="0.8544" stop-color="#07A2F6"/>
<stop offset="0.9362" stop-color="#07C3F2"/>
</linearGradient>
<linearGradient id="paint5_linear_391_162" x1="410.44" y1="545.22" x2="707.569" y2="275.679" gradientUnits="userSpaceOnUse">
<stop stop-color="#FCF84A"/>
<stop offset="0.4317" stop-color="#3DEA62"/>
<stop offset="0.7591" stop-color="#3DEA62"/>
<stop offset="1" stop-color="#21D789"/>
</linearGradient>
<linearGradient id="paint6_linear_391_162" x1="1023.64" y1="545.681" x2="1178.35" y2="545.681" gradientUnits="userSpaceOnUse">
<stop stop-color="#EE197D"/>
<stop offset="0.0692985" stop-color="#EF247B"/>
<stop offset="0.7125" stop-color="#F38A68"/>
<stop offset="1" stop-color="#F5B361"/>
</linearGradient>
<linearGradient id="paint7_linear_391_162" x1="1184.82" y1="546.631" x2="1379.49" y2="546.631" gradientUnits="userSpaceOnUse">
<stop stop-color="#FCF84A"/>
<stop offset="0.4317" stop-color="#3DEA62"/>
<stop offset="0.7591" stop-color="#3DEA62"/>
<stop offset="1" stop-color="#21D789"/>
</linearGradient>
<linearGradient id="paint8_linear_391_162" x1="1387.05" y1="551.204" x2="1542.53" y2="551.204" gradientUnits="userSpaceOnUse">
<stop stop-color="#3DEA62"/>
<stop offset="0.4006" stop-color="#21D789"/>
<stop offset="0.4845" stop-color="#1FCF93"/>
<stop offset="0.6286" stop-color="#19B9AF"/>
<stop offset="0.8142" stop-color="#0F95DB"/>
<stop offset="0.9284" stop-color="#087CFA"/>
</linearGradient>
<linearGradient id="paint9_linear_391_162" x1="1546.45" y1="549.354" x2="1719.59" y2="549.354" gradientUnits="userSpaceOnUse">
<stop offset="0.1281" stop-color="#07C3F2"/>
<stop offset="1" stop-color="#087CFA"/>
</linearGradient>
<linearGradient id="paint10_linear_391_162" x1="2147.9" y1="561.558" x2="2357.7" y2="561.558" gradientUnits="userSpaceOnUse">
<stop stop-color="#087CFA"/>
<stop offset="1" stop-color="#5E5CFE"/>
</linearGradient>
<linearGradient id="paint11_linear_391_162" x1="2362.82" y1="553.829" x2="2531.05" y2="553.829" gradientUnits="userSpaceOnUse">
<stop stop-color="#6B57FF"/>
<stop offset="1" stop-color="#087CFA"/>
</linearGradient>
<linearGradient id="paint12_linear_391_162" x1="2535.88" y1="546.791" x2="2696.99" y2="546.791" gradientUnits="userSpaceOnUse">
<stop stop-color="#087CFA"/>
<stop offset="0.5536" stop-color="#21D789"/>
<stop offset="0.6867" stop-color="#28DC7F"/>
<stop offset="0.9146" stop-color="#3CE963"/>
<stop offset="0.9246" stop-color="#3DEA62"/>
</linearGradient>
<linearGradient id="paint13_linear_391_162" x1="2704.61" y1="551.204" x2="2860.1" y2="551.204" gradientUnits="userSpaceOnUse">
<stop stop-color="#21D789"/>
<stop offset="0.5266" stop-color="#3DEA62"/>
<stop offset="0.8918" stop-color="#FCF84A"/>
<stop offset="1" stop-color="#FCF84A"/>
</linearGradient>
<linearGradient id="paint14_linear_391_162" x1="2864.01" y1="549.354" x2="3037.15" y2="549.354" gradientUnits="userSpaceOnUse">
<stop stop-color="#FFF84A"/>
<stop offset="0.2614" stop-color="#FDDF34"/>
<stop offset="0.749" stop-color="#FAB60E"/>
<stop offset="1" stop-color="#F9A600"/>
</linearGradient>
</defs>
</svg>
